<?xml version="1.0" standalone="no"?>
<svg xmlns:xlink="http://www.w3.org/1999/xlink" id="wave" style="transform:rotate(0deg); transition: 0.3s" viewBox="0 0 1440 100" version="1.1" xmlns="http://www.w3.org/2000/svg"><defs><linearGradient id="sw-gradient-0" x1="0" x2="0" y1="1" y2="0"><stop stop-color="rgba(255, 249, 243, 1)" offset="0%"/><stop stop-color="rgba(255, 249, 243, 1)" offset="100%"/></linearGradient></defs><path style="transform:translate(0, 0px); opacity:1" fill="url(#sw-gradient-0)" d="M0,30L60,35C120,40,240,50,360,55C480,60,600,60,720,50C840,40,960,20,1080,15C1200,10,1320,20,1440,26.7C1560,33,1680,37,1800,31.7C1920,27,2040,13,2160,18.3C2280,23,2400,47,2520,56.7C2640,67,2760,63,2880,58.3C3000,53,3120,47,3240,40C3360,33,3480,27,3600,21.7C3720,17,3840,13,3960,13.3C4080,13,4200,17,4320,25C4440,33,4560,47,4680,51.7C4800,57,4920,53,5040,50C5160,47,5280,43,5400,48.3C5520,53,5640,67,5760,73.3C5880,80,6000,80,6120,68.3C6240,57,6360,33,6480,26.7C6600,20,6720,30,6840,33.3C6960,37,7080,33,7200,30C7320,27,7440,23,7560,26.7C7680,30,7800,40,7920,46.7C8040,53,8160,57,8280,63.3C8400,70,8520,80,8580,85L8640,90L8640,100L8580,100C8520,100,8400,100,8280,100C8160,100,8040,100,7920,100C7800,100,7680,100,7560,100C7440,100,7320,100,7200,100C7080,100,6960,100,6840,100C6720,100,6600,100,6480,100C6360,100,6240,100,6120,100C6000,100,5880,100,5760,100C5640,100,5520,100,5400,100C5280,100,5160,100,5040,100C4920,100,4800,100,4680,100C4560,100,4440,100,4320,100C4200,100,4080,100,3960,100C3840,100,3720,100,3600,100C3480,100,3360,100,3240,100C3120,100,3000,100,2880,100C2760,100,2640,100,2520,100C2400,100,2280,100,2160,100C2040,100,1920,100,1800,100C1680,100,1560,100,1440,100C1320,100,1200,100,1080,100C960,100,840,100,720,100C600,100,480,100,360,100C240,100,120,100,60,100L0,100Z"/></svg>