<?xml version="1.0" standalone="no"?>
<svg xmlns:xlink="http://www.w3.org/1999/xlink" id="wave" style="transform:rotate(0deg); transition: 0.3s" viewBox="0 0 1440 100" version="1.1" xmlns="http://www.w3.org/2000/svg"><defs><linearGradient id="sw-gradient-0" x1="0" x2="0" y1="1" y2="0"><stop stop-color="rgba(249, 235, 221, 1)" offset="0%"/><stop stop-color="rgba(249, 235, 221, 1)" offset="100%"/></linearGradient></defs><path style="transform:translate(0, 0px); opacity:1" fill="url(#sw-gradient-0)" d="M0,90L60,81.7C120,73,240,57,360,51.7C480,47,600,53,720,60C840,67,960,73,1080,68.3C1200,63,1320,47,1440,41.7C1560,37,1680,43,1800,51.7C1920,60,2040,70,2160,61.7C2280,53,2400,27,2520,21.7C2640,17,2760,33,2880,33.3C3000,33,3120,17,3240,10C3360,3,3480,7,3600,6.7C3720,7,3840,3,3960,1.7C4080,0,4200,0,4320,8.3C4440,17,4560,33,4680,43.3C4800,53,4920,57,5040,48.3C5160,40,5280,20,5400,16.7C5520,13,5640,27,5760,31.7C5880,37,6000,33,6120,35C6240,37,6360,43,6480,50C6600,57,6720,63,6840,58.3C6960,53,7080,37,7200,38.3C7320,40,7440,60,7560,61.7C7680,63,7800,47,7920,46.7C8040,47,8160,63,8280,65C8400,67,8520,53,8580,46.7L8640,40L8640,100L8580,100C8520,100,8400,100,8280,100C8160,100,8040,100,7920,100C7800,100,7680,100,7560,100C7440,100,7320,100,7200,100C7080,100,6960,100,6840,100C6720,100,6600,100,6480,100C6360,100,6240,100,6120,100C6000,100,5880,100,5760,100C5640,100,5520,100,5400,100C5280,100,5160,100,5040,100C4920,100,4800,100,4680,100C4560,100,4440,100,4320,100C4200,100,4080,100,3960,100C3840,100,3720,100,3600,100C3480,100,3360,100,3240,100C3120,100,3000,100,2880,100C2760,100,2640,100,2520,100C2400,100,2280,100,2160,100C2040,100,1920,100,1800,100C1680,100,1560,100,1440,100C1320,100,1200,100,1080,100C960,100,840,100,720,100C600,100,480,100,360,100C240,100,120,100,60,100L0,100Z"/></svg>