<?xml version="1.0" standalone="no"?>
<svg xmlns:xlink="http://www.w3.org/1999/xlink" id="wave" style="transform:rotate(0deg); transition: 0.3s" viewBox="0 0 1440 100" version="1.1" xmlns="http://www.w3.org/2000/svg"><defs><linearGradient id="sw-gradient-0" x1="0" x2="0" y1="1" y2="0"><stop stop-color="rgba(252, 216, 201, 1)" offset="0%"/><stop stop-color="rgba(252, 216, 201, 1)" offset="100%"/></linearGradient></defs><path style="transform:translate(0, 0px); opacity:1" fill="url(#sw-gradient-0)" d="M0,40L60,48.3C120,57,240,73,360,68.3C480,63,600,37,720,30C840,23,960,37,1080,50C1200,63,1320,77,1440,76.7C1560,77,1680,63,1800,60C1920,57,2040,63,2160,55C2280,47,2400,23,2520,15C2640,7,2760,13,2880,25C3000,37,3120,53,3240,53.3C3360,53,3480,37,3600,40C3720,43,3840,67,3960,66.7C4080,67,4200,43,4320,36.7C4440,30,4560,40,4680,45C4800,50,4920,50,5040,53.3C5160,57,5280,63,5400,66.7C5520,70,5640,70,5760,58.3C5880,47,6000,23,6120,23.3C6240,23,6360,47,6480,61.7C6600,77,6720,83,6840,78.3C6960,73,7080,57,7200,48.3C7320,40,7440,40,7560,36.7C7680,33,7800,27,7920,31.7C8040,37,8160,53,8280,60C8400,67,8520,63,8580,61.7L8640,60L8640,100L8580,100C8520,100,8400,100,8280,100C8160,100,8040,100,7920,100C7800,100,7680,100,7560,100C7440,100,7320,100,7200,100C7080,100,6960,100,6840,100C6720,100,6600,100,6480,100C6360,100,6240,100,6120,100C6000,100,5880,100,5760,100C5640,100,5520,100,5400,100C5280,100,5160,100,5040,100C4920,100,4800,100,4680,100C4560,100,4440,100,4320,100C4200,100,4080,100,3960,100C3840,100,3720,100,3600,100C3480,100,3360,100,3240,100C3120,100,3000,100,2880,100C2760,100,2640,100,2520,100C2400,100,2280,100,2160,100C2040,100,1920,100,1800,100C1680,100,1560,100,1440,100C1320,100,1200,100,1080,100C960,100,840,100,720,100C600,100,480,100,360,100C240,100,120,100,60,100L0,100Z"/></svg>